<svg width="0" height="0" style="position: absolute;">
  <defs>
    <!-- Container SVG -->
    <symbol id="container" viewBox="0 0 100 60">
      <rect x="10" y="20" width="80" height="30" fill="#4a90e2" stroke="#2c5aa0" stroke-width="2"/>
      <rect x="15" y="25" width="70" height="20" fill="#6ba3e8" opacity="0.7"/>
      <circle cx="25" cy="50" r="5" fill="#333"/>
      <circle cx="75" cy="50" r="5" fill="#333"/>
      <rect x="5" y="15" width="90" height="5" fill="#5a9fd8"/>
    </symbol>
    
    <!-- Ship SVG -->
    <symbol id="ship" viewBox="0 0 120 40">
      <path d="M10 30 Q20 20, 40 25 L80 25 Q100 20, 110 30 L110 35 L10 35 Z" fill="#3d7bb3" stroke="#2a5a8a" stroke-width="1.5"/>
      <rect x="45" y="15" width="8" height="15" fill="#8b4513"/>
      <rect x="50" y="10" width="20" height="8" fill="#f4a460"/>
      <circle cx="20" cy="32" r="3" fill="#666"/>
      <circle cx="100" cy="32" r="3" fill="#666"/>
    </symbol>
    
    <!-- Plane SVG -->
    <symbol id="plane" viewBox="0 0 80 40">
      <path d="M10 20 L30 15 L50 20 L45 25 L35 23 L25 25 L15 23 Z" fill="#87ceeb" stroke="#4682b4" stroke-width="1.5"/>
      <path d="M50 20 L70 18 L75 20 L70 22 L50 22 Z" fill="#b0c4de"/>
      <path d="M30 15 L35 10 L40 12 L35 15 Z" fill="#add8e6"/>
      <path d="M30 25 L35 30 L40 28 L35 25 Z" fill="#add8e6"/>
      <circle cx="45" cy="20" r="2" fill="#fff"/>
    </symbol>
  </defs>
</svg>

